<mxfile host="app.diagrams.net" modified="2024-04-16T01:21:57.248Z" agent="Mozilla/5.0 (Windows NT 10.0; Win64; x64) AppleWebKit/537.36 (KHTML, like Gecko) Chrome/123.0.0.0 Safari/537.36" version="24.0.7" etag="wm7gCa49Uf3kUfYJclAi" type="github">
  <diagram name="第 1 页" id="kYvIm-lCNY9ahgskyXj3">
    <mxGraphModel>
      <root>
        <mxCell id="0" />
        <mxCell id="1" parent="0" />
      </root>
    </mxGraphModel>
  </diagram>
</mxfile>
